<svg xmlns="http://www.w3.org/2000/svg" viewBox="0 0 528.57 169.81"><defs><style>.cls-1{fill:#f9da1b;}</style></defs><g id="Capa_2" data-name="Capa 2"><g id="Capa_1-2" data-name="Capa 1"><path class="cls-1" d="M200.17,76.74h25.15L245.81,110,266.3,76.74h25.15v85.87H267.77V113.29l-22,33.61h-.49l-21.84-33.37V162.6H200.17Z"/><path class="cls-1" d="M307.15,76.74h23.92v85.87H307.15Z"/><path class="cls-1" d="M346.77,76.74h23.8v65h41.59v20.85H346.77Z"/><path class="cls-1" d="M422.34,76.74h69.07V97H445.9v13h41.22v18.77H445.9v13.62H492v20.24H422.35V76.74Z"/><path class="cls-1" d="M504.65,76.74h23.92v85.87H504.65Z"/><path class="cls-1" d="M200.42,55.17l1.92-.86c3.07,7.76,9.58,12.36,17.43,12.36,9.77,0,17.72-6.8,17.72-21.94V.47h2.11v44c0,8.81-2.39,14.85-6.32,18.77a18.7,18.7,0,0,1-13.7,5.36C211.15,68.59,203.77,63.6,200.42,55.17Z"/><path class="cls-1" d="M282.13,0H284l32.28,67.53h-2.3l-9.58-20.12H261.63l-9.58,20.12h-2.2ZM303.4,45.5,283,2.78,262.6,45.5Z"/><path class="cls-1" d="M313.75.48h2.3l29,64.56,29-64.56h2.2L345.83,68H344.2Z"/><path class="cls-1" d="M390.48.48h2.11V67.53h-2.11Z"/><path class="cls-1" d="M413.19.48H460V2.4H415.3V32.86h40.62v1.92H415.3V65.62h45.21v1.92H413.19V.48Z"/><path class="cls-1" d="M476.51.48h27.4c8.72,0,15.14,2.2,19.25,6.32A17,17,0,0,1,528,19.25v.19c0,11.3-9,18-21.94,18.78l22.32,29.31h-2.59L503.52,38.31H478.61V67.53H476.5V.48ZM502.85,36.4c15.52,0,23-7.38,23-16.86v-.19c0-10.63-8.24-17-22.13-17h-25.1v34Z"/><path class="cls-1" d="M126.29,34.7c5.2.12,3.52,2.33,1.65,7.59,3.84-4.59,7.29-1.13,12.06-3C133.12,38,133.9,31.94,126.29,34.7Z"/><path class="cls-1" d="M163.55,39.42c-6.24-2.16-11.88-5.94-18.73-6.51-1.64-.14-3.43-1.74-4.64-3.12a12,12,0,0,0-8.51-4.37c-5.6-.31-9.29-3.19-11.92-7.91-1.54-2.78-3.29-5.44-4.92-8.17-2.18-3.65-5.54-5.66-9.79-7.2l2.47,5.21L92.28.48c-.15.25-.3.5-.44.76L97.9,8.42c-7.08-1.78-12.73-7.33-20.6-6l8.55,8.16-.37.34C81.51,9.69,77.6,8,73.54,7.46,70.13,7,66.53,7.68,63,8a25,25,0,0,0-3,.93c-8.09,1.76-13.91,6.23-19,13C34.18,31,24.16,35.67,12.93,37.56c-.74.12-1.46.35-2.29.55,3.7,3.59,8.08,4.14,21.6,2.66C29.55,42,27.49,43,25.44,44,18.19,47.44,13.5,52.83,12.2,61a23.38,23.38,0,0,1-2.41,6.42C3.7,79.78.86,92.42,6.06,105.86c3,7.82-.86,14.2-4.41,20.62-.46.84-1.09,1.58-1.63,2.37,0,.06,0,.18,0,.27,6.19,1.27,14-1.82,19.64-7.21s7.08-12.63,10.34-19.3c3.06,1.36-1.35,36-9.59,41.13,5.94-.15,11.18-3,15.26-8.2,4.57-5.84,12.83-6.5,20.09-8.5.35-.1.7-.15,1.47-.32-6.83,7.24-16.63,11-20.23,20.72a82.91,82.91,0,0,0-3.8,14c1.6-1.49,3.28-2.91,4.78-4.49a26.26,26.26,0,0,1,18.71-8.4,54.61,54.61,0,0,0,25.69-7.23c-1.66,7-6.89,9.32-12.23,12.15,9.66,2.91,18.14,1.61,26.07-3.8l.73.72L85.19,169.81c20.49-2.55,34.68-11.35,37.38-33.55,6.79,8.13,4.53,16.75,3.17,25.87,9.62-8,15.78-17.36,16.79-30.4,3.47,4.36,4.3,8.61,4.47,13.11,5.7-4.27,6.81-18.72-3.74-30.56,2.87-2.15,5.91-4.16,8.64-6.53s4.24-9.25-.84-10.78c1.63-3.06,2.34-11.19,2.7-14.43-1.94,2.43-11.84,8-15.49,8.41-.62.26-19.05-6.4-.47-31.23,5.73-7.6,18.17-1.1,21.46,13,0,0,3.44-3.39,3.8-7.56.22-2.55.29-5.32,1.35-7.55,1.2-2.52.67-4.66,0-6.94a7,7,0,0,1,.81-6.26C167,41.8,166.48,40.43,163.55,39.42ZM37.24,89.26a11.4,11.4,0,0,1-.19-3.5C38.54,75,43.46,66.26,52.34,60c6.92-4.9,15-7.29,23.23-9.31-8.84,7.39-16,15.74-17.38,27.74-1.75-6,.72-11.25,2.17-17.2C47,66.3,41.5,77.27,37.24,89.26Zm30-75.18c9.87-1.81,13.63-.14,15.83.58a51.52,51.52,0,0,1,12.24,5.85c2,1.25-21.61-8.5-35.88.22a43.28,43.28,0,0,1,14.44,4.7c-15.46-.86-20.07-.34-32.4,6.06C41.51,31.49,57.41,15.89,67.28,14.08ZM11.47,95.83c-1.19-19.75,5.43-33,6.49-34.7,16.56-26.26,41.77-22.7,55.79-19.85-27.6,1-39.13,5.14-51.95,21.31,7.55-4.49,13.58-7.52,23.81-7.75C24.88,64,19.75,67.58,11.47,95.83Zm67.66,14.34c-6.13,1.92-12.08,4.42-18.09,6.7-2.09.8-4.13,1.74-6.19,2.61,4-3.77,8.29-7,12.5-10.41,6.5-5.18,8-10.38,5.19-18.12-1.28-3.53-2.77-7-4-10.51C66,73.5,68,67.21,71.29,61.12c.25.89-1.49,13.2,4.71,23,4.28,7.35,9.92,13.75,5.88,19.36a15.8,15.8,0,0,0,9.28-8.07c2.35-4.7,2.34-9.68,1.58-14.7-.46-3.1-1.15-6.17-1.74-9.25,3.28,4.52,5.85,9.31,6,14.94C97.37,97.62,90.3,106.66,79.13,110.17Zm31.9,1.61a18.49,18.49,0,0,0-2.3-6,1.86,1.86,0,0,0-3.2-.27,128.66,128.66,0,0,1-9.61,11.64c.62-1,6.84-14.07,8.64-20.1,2.17-7.26-.51-13.87-3.92-20.39C111.73,87.74,112.31,96.89,111,111.78Zm40-23.07c-.25,2.13-2.46,5.58-3.67,6.76-2.82.3-4.12.36-6.11-2.1C144.4,92.43,150.92,89.1,151.06,88.71ZM160,67.48q-2.26-7.22-6.88-9.78a17.18,17.18,0,0,0,7.31.07A16.29,16.29,0,0,1,160,67.48Zm.57-12.55a40.77,40.77,0,0,1-6.06-.13A15.29,15.29,0,0,1,148.94,53a12.09,12.09,0,0,1-4.22-4.22c-.79-1.44-.57-2.82-.78-4.45-1.73,4.62,1.74,8.35,2.87,9.3l-.41.86c-4.81-1.07-8.76.55-11.23,4.36a73.15,73.15,0,0,0-7.41,14c-2.94,7.88.47,18.79,7.85,22.53,4.92,2.5,9.48,6.92,15.82,5.71-.16,3.56-3.48,7.58-6.66,8.43.32-.73.66-1.48,1.1-2.49l-6.54,3.82c-.29-.3.72-2.64,1.6-4.08l-6.46,3.06,1.46-2.35-5.91-.9c0-.18,0-.14,0-.33l6.88-2.52-3.69.34c-.36-2-3.5-6.53-4.61-7.39,0,0-.71,3-1.2,3-.87-4.9-1.74-9.79-2.7-15.17-1.09,2.35-2,4.26-2.86,6.17-.64-6.61,2.8-12.82.8-19.87-1.25,3.77-3.82,10.39-4.36,10.26.4-2.53,1.52-12.91-.4-15-3.81-4.06-3.6-8.14-.73-12.58,2.14-3.3,1.52-7,1.59-11.3l-3.51,4.21V38.23s-3.24-1.12-3.49-2.33l5.63,1.24-2.58-4.27L120.11,34c.18-.35-3.26-3.83-5-5.41A104.4,104.4,0,0,1,130.23,28c3.27.05,5.68,1.75,8,4a18.06,18.06,0,0,0,6.41,3.52c5.62,1.95,11.35,3.58,17,5.34-.13.85-4.87,1.69-7.06,1.87a1.07,1.07,0,0,0-.32,2.05c1.12.46,2.16.9,3.75,1.53,2.75,1.1,4.08,3.41,4.5,6.26C162.79,54,162.18,54.94,160.54,54.93Z"/></g></g></svg>