<?xml version="1.0" encoding="UTF-8"?>
<!DOCTYPE svg PUBLIC "-//W3C//DTD SVG 1.1//EN" "http://www.w3.org/Graphics/SVG/1.1/DTD/svg11.dtd">
<!-- Creator: CorelDRAW 2018 (64 Bit Versión de evaluación) -->
<svg xmlns="http://www.w3.org/2000/svg" xml:space="preserve" width="10.6756mm" height="5.8483mm" version="1.1" style="shape-rendering:geometricPrecision; text-rendering:geometricPrecision; image-rendering:optimizeQuality; fill-rule:evenodd; clip-rule:evenodd"
viewBox="0 0 167.41 91.71"
 xmlns:xlink="http://www.w3.org/1999/xlink">
 <defs>
  <style type="text/css">
   <![CDATA[
    .fil0 {fill:black}
    .fil4 {fill:#5500FF}
    .fil2 {fill:#57D8FF}
    .fil3 {fill:#A000FF}
    .fil7 {fill:#B40064}
    .fil5 {fill:#F3AE00}
    .fil6 {fill:#FF6E00}
    .fil1 {fill:black;fill-rule:nonzero}
   ]]>
  </style>
 </defs>
 <g id="Capa_x0020_1">
  <metadata id="CorelCorpID_0Corel-Layer"/>
  <g id="_1037569408">
   <path class="fil0" d="M161.57 86.57c-0.91,1.13 -2.23,1.7 -3.93,1.7 -1.68,0 -3.01,-0.58 -4.01,-1.73 -1.01,-1.15 -1.5,-2.74 -1.5,-4.75 0,-2.09 0.5,-3.72 1.48,-4.91 0.99,-1.19 2.33,-1.78 4.03,-1.78 1.7,0 3.02,0.58 3.93,1.72 0.92,1.15 1.39,2.78 1.39,4.89 0,2.09 -0.46,3.71 -1.39,4.85zm3.32 -12.29l0 0c-1.66,-1.76 -4.01,-2.64 -7,-2.64 -3.13,0 -5.61,0.9 -7.45,2.71 -1.83,1.82 -2.76,4.33 -2.76,7.55 0,2.96 0.88,5.34 2.66,7.13 1.76,1.79 4.12,2.68 7.08,2.68 3.05,0 5.47,-0.92 7.29,-2.76 1.8,-1.84 2.7,-4.29 2.7,-7.35 0,-3.12 -0.84,-5.56 -2.52,-7.32zm-24.15 16.99l0 0 4.35 0 0 -19.17 -4.35 0 0 19.17zm2.15 -28.15l0 0c-0.71,0 -1.31,0.24 -1.82,0.71 -0.51,0.47 -0.76,1.07 -0.76,1.78 0,0.72 0.25,1.3 0.76,1.77 0.51,0.46 1.11,0.69 1.82,0.69 0.73,0 1.36,-0.24 1.87,-0.72 0.51,-0.48 0.77,-1.05 0.77,-1.73 0,-0.71 -0.26,-1.3 -0.77,-1.78 -0.51,-0.48 -1.14,-0.71 -1.87,-0.71zm-10.67 9.77l0 0c-0.88,0.75 -1.54,1.8 -1.96,3.16l-0.08 0 0 -3.95 -4.34 0 0 19.17 4.34 0 0 -9.18c0,-1.99 0.43,-3.58 1.3,-4.74 0.86,-1.16 1.94,-1.74 3.22,-1.74 0.98,0 1.74,0.2 2.27,0.61l0 -4.11c-0.41,-0.24 -1.01,-0.36 -1.8,-0.36 -1.09,0 -2.06,0.38 -2.94,1.14zm-15.16 10.63l0 0c0,1.41 -0.43,2.58 -1.3,3.51 -0.86,0.93 -1.97,1.4 -3.28,1.4 -0.97,0 -1.76,-0.26 -2.33,-0.78 -0.58,-0.52 -0.88,-1.19 -0.88,-1.99 0,-1.11 0.32,-1.88 0.95,-2.33 0.63,-0.44 1.57,-0.74 2.82,-0.91l4.03 -0.56 0 1.67zm-3.08 -11.87l0 0c-2.64,0 -4.97,0.59 -6.99,1.8l0 3.8c1.83,-1.57 3.89,-2.36 6.18,-2.36 2.59,0 3.89,1.37 3.89,4.1l-5.7 0.81c-4.17,0.6 -6.25,2.71 -6.25,6.33 0,1.69 0.53,3.04 1.6,4.07 1.07,1.02 2.55,1.53 4.43,1.53 2.56,0 4.51,-1.14 5.83,-3.45l0.07 0 0 3 4.21 0 0 -12.47c0,-4.77 -2.42,-7.15 -7.27,-7.15zm-15.78 -5.23l0 0 -4.34 1.24c0,7.62 0,7.58 0,18.68 0,3.57 1.85,5.36 5.57,5.36 1.39,0 2.51,-0.21 3.35,-0.63l0 -3.45c-0.54,0.42 -1.17,0.63 -1.91,0.63 -0.97,0 -1.65,-0.24 -2.07,-0.73 -0.4,-0.49 -0.61,-1.3 -0.61,-2.44l0 -9.59 4.59 0 0 -3.4 -4.59 0 0 -5.68zm-11.66 6.47l0 0c-0.88,0.75 -1.53,1.8 -1.95,3.16l-0.08 0 0 -3.95 -4.34 0 0 19.17 4.34 0 0 -9.18c0,-1.99 0.43,-3.58 1.29,-4.74 0.87,-1.16 1.94,-1.74 3.22,-1.74 0.98,0 1.74,0.2 2.27,0.61l0 -4.11c-0.41,-0.24 -1.02,-0.36 -1.8,-0.36 -1.08,0 -2.06,0.38 -2.95,1.14zm-23.58 6.9l0 0c0.2,-1.47 0.73,-2.66 1.6,-3.58 0.87,-0.91 1.92,-1.37 3.17,-1.37 1.27,0 2.27,0.43 2.99,1.3 0.73,0.87 1.09,2.09 1.1,3.65l-8.86 0zm4.82 -8.15l0 0c-2.62,0 -4.81,0.94 -6.58,2.82 -1.77,1.88 -2.65,4.31 -2.65,7.29 0,3.16 0.8,5.61 2.41,7.35 1.6,1.74 3.82,2.61 6.64,2.61 2.87,0 5.18,-0.55 6.93,-1.65l0 -3.5c-1.71,1.22 -3.59,1.83 -5.63,1.83 -1.83,0 -3.26,-0.48 -4.3,-1.45 -1.05,-0.96 -1.6,-2.33 -1.64,-4.1l13.06 0 0 -1.67c0,-3 -0.72,-5.34 -2.14,-7.03 -1.44,-1.68 -3.46,-2.52 -6.09,-2.52zm-17.34 14.75l0 0c-0.92,1.26 -2.18,1.88 -3.8,1.88 -1.36,0 -2.51,-0.48 -3.39,-1.46 -0.9,-0.98 -1.34,-2.16 -1.34,-3.56l0 -2.38c0,-1.65 0.47,-3.02 1.42,-4.12 0.94,-1.09 2.19,-1.65 3.74,-1.65 1.45,0 2.61,0.53 3.47,1.6 0.86,1.06 1.29,2.54 1.29,4.43 0,2.25 -0.46,4 -1.38,5.25zm-1.9 -14.75l0 0c-2.86,0 -5.03,1.27 -6.52,3.82l-0.07 0 0 -12.58 -4.35 0 0 28.39 4.35 0 0 -2.77 0.07 0c1.27,2.15 3.17,3.22 5.66,3.22 2.66,0 4.76,-0.96 6.29,-2.89 1.53,-1.93 2.31,-4.5 2.31,-7.71 0,-2.89 -0.68,-5.19 -2.06,-6.9 -1.36,-1.72 -3.26,-2.58 -5.68,-2.58zm-20.03 19.63l0 0 4.35 0 0 -19.17 -4.35 0 0 19.17zm2.19 -28.15l0 0c-0.71,0 -1.32,0.24 -1.82,0.71 -0.51,0.47 -0.76,1.07 -0.76,1.78 0,0.72 0.26,1.3 0.76,1.77 0.5,0.46 1.11,0.69 1.82,0.69 0.74,0 1.36,-0.24 1.87,-0.72 0.51,-0.48 0.77,-1.05 0.77,-1.73 0,-0.71 -0.26,-1.3 -0.77,-1.78 -0.51,-0.48 -1.14,-0.71 -1.87,-0.71zm-16 1.29l0 0 -4.46 0 0 26.85 14.87 0 0 -3.76 -10.41 0 0 -23.09z"/>
   <path class="fil1" d="M158.45 38.7c-1.9,0 -3.4,0.65 -4.51,1.94 -1.11,1.29 -1.66,3.07 -1.66,5.34 0,2.18 0.56,3.91 1.68,5.17 1.11,1.26 2.61,1.89 4.48,1.89 1.9,0 3.37,-0.62 4.4,-1.85 1.02,-1.24 1.53,-2.99 1.53,-5.28 0,-2.3 -0.51,-4.08 -1.53,-5.33 -1.03,-1.25 -2.5,-1.87 -4.4,-1.87zm-0.22 16.82l0 0c-2.73,0 -4.9,-0.86 -6.53,-2.59 -1.63,-1.72 -2.44,-4 -2.44,-6.85 0,-3.1 0.85,-5.52 2.54,-7.26 1.69,-1.74 3.98,-2.61 6.86,-2.61 2.74,0 4.89,0.85 6.44,2.54 1.54,1.69 2.31,4.04 2.31,7.04 0,2.94 -0.83,5.3 -2.5,7.07 -1.66,1.77 -3.89,2.66 -6.68,2.66zm-14.8 -8.77l0 0 0 -2.72c0,-1.49 -0.49,-2.75 -1.48,-3.78 -0.98,-1.03 -2.23,-1.55 -3.74,-1.55 -1.79,0 -3.22,0.66 -4.24,1.98 -1.03,1.32 -1.55,3.14 -1.55,5.47 0,2.12 0.5,3.8 1.49,5.03 0.99,1.23 2.32,1.85 3.99,1.85 1.64,0 2.98,-0.59 4,-1.78 1.03,-1.19 1.54,-2.69 1.54,-4.5zm2.95 8.34l0 0 -2.95 0 0 -3.13 -0.07 0c-1.37,2.38 -3.48,3.57 -6.34,3.57 -2.32,0 -4.17,-0.83 -5.55,-2.48 -1.39,-1.65 -2.08,-3.9 -2.08,-6.74 0,-3.05 0.77,-5.49 2.31,-7.33 1.54,-1.83 3.58,-2.76 6.14,-2.76 2.54,0 4.38,1 5.53,2.99l0.07 0 0 -11.42 2.95 0 0 27.3zm-19.87 0l0 0 -2.95 0 0 -18.44 2.95 0 0 18.44zm-1.44 -23.12l0 0c-0.52,0 -0.98,-0.18 -1.35,-0.54 -0.38,-0.36 -0.56,-0.82 -0.56,-1.37 0,-0.55 0.18,-1.01 0.56,-1.38 0.37,-0.37 0.82,-0.55 1.35,-0.55 0.54,0 1,0.18 1.38,0.55 0.38,0.37 0.57,0.83 0.57,1.38 0,0.53 -0.19,0.98 -0.57,1.35 -0.37,0.37 -0.83,0.56 -1.38,0.56zm-5.46 22.94l0 0c-0.69,0.39 -1.61,0.58 -2.75,0.58 -3.23,0 -4.84,-1.8 -4.84,-5.4 0,-11.27 0,-10.4 0,-17.94l2.95 -0.95 0 5.46 4.64 0 0 2.52 -4.64 0 0 10.39c0,1.24 0.21,2.12 0.63,2.65 0.43,0.53 1.12,0.79 2.09,0.79 0.74,0 1.39,-0.2 1.93,-0.61l0 2.52zm-10 -15.27l0 0c-0.51,-0.4 -1.25,-0.59 -2.23,-0.59 -1.25,0 -2.31,0.59 -3.16,1.78 -0.85,1.19 -1.27,2.81 -1.27,4.86l0 9.4 -2.95 0 0 -18.44 2.95 0 0 3.8 0.07 0c0.42,-1.3 1.06,-2.31 1.93,-3.03 0.86,-0.73 1.83,-1.09 2.9,-1.09 0.77,0 1.35,0.09 1.76,0.26l0 3.06zm-17.06 6.12l0 0 -4.45 0.61c-1.37,0.19 -2.4,0.53 -3.1,1.02 -0.69,0.49 -1.04,1.35 -1.04,2.59 0,0.9 0.32,1.63 0.96,2.2 0.64,0.57 1.5,0.85 2.56,0.85 1.47,0 2.68,-0.51 3.63,-1.54 0.96,-1.03 1.43,-2.33 1.43,-3.9l0 -1.84zm2.96 9.33l0 0 -2.96 0 0 -2.88 -0.07 0c-1.29,2.21 -3.17,3.31 -5.68,3.31 -1.84,0 -3.27,-0.49 -4.31,-1.46 -1.04,-0.97 -1.56,-2.26 -1.56,-3.87 0,-3.45 2.03,-5.45 6.09,-6.01l5.53 -0.78c0,-3.13 -1.27,-4.7 -3.8,-4.7 -2.22,0 -4.23,0.75 -6.01,2.27l0 -3.02c1.81,-1.15 3.9,-1.73 6.26,-1.73 4.33,0 6.5,2.3 6.5,6.88l0 11.99zm-27.85 -23.08l0 0 0 10.59 3.17 0c2.08,0 3.68,-0.48 4.78,-1.43 1.1,-0.95 1.64,-2.3 1.64,-4.04 0,-3.41 -2.02,-5.11 -6.05,-5.11l-3.55 0zm0 13.32l0 0 0 9.76 -3.03 0 0 -25.82 7.1 0c2.76,0 4.89,0.67 6.42,2.02 1.52,1.34 2.28,3.24 2.28,5.69 0,2.45 -0.85,4.45 -2.53,6.02 -1.69,1.56 -3.96,2.34 -6.84,2.34l-3.4 0z"/>
   <g>
    <path class="fil2" d="M55.53 53.36c0,0 1.69,-19.29 -11.99,-27.16l-41.32 -26.2c0,0 -2.33,18.77 13.92,28.54l39.39 24.82z"/>
    <path class="fil3" d="M55.53 53.36c0,0 -3.28,-17.06 -15.49,-20.98l-40.04 -13.29c0,0 1.79,17.16 17.41,21.87l38.12 12.4z"/>
    <path class="fil4" d="M55.53 53.36l-0.41 -2.23c-0.9,-4.9 -5.71,-15.69 -15.03,-18.71l-31.53 -10.46c1.91,2.4 4.38,4.67 7.57,6.59l39.39 24.82z"/>
    <path class="fil5" d="M55.53 53.36c0,0 -5.02,-14.05 -18.01,-14.05l-34.13 -0.16c0,0 2.07,3.64 5.77,7.24 3.69,3.6 9.01,7.15 15.5,6.98l30.87 -0.01z"/>
    <path class="fil6" d="M55.53 53.36l-0.03 -0.1c-0,-0 -0,-0 -0,-0 -0.06,-0.17 -0.12,-0.33 -0.19,-0.5 -1.18,-2.78 -6.45,-13.45 -17.75,-13.45l-24.33 -0.11c1.27,0.67 2.66,1.25 4.18,1.71l38.12 12.45z"/>
    <path class="fil7" d="M55.39 52.88c-0.27,-0.91 -1.18,-2.63 -2.52,-4.6 -2.73,-4.04 -7.65,-8.97 -15.36,-8.96l-4.27 -0.02 22.29 14.06 -0.14 -0.48z"/>
   </g>
  </g>
 </g>
</svg>
